PathFileType	4	(X/Y/Z)	/Users/niels/Desktop/University/Third Semester/Perception and Action/Exam/Gymnastics Motion Tracking/Code for Gym Tracking/Analyzed Data/Webcam_Backflip/id2001_1_trajectory_Sports2D/id2001_1_trajectory_Sports2D_px_person00.trc
DataRate	CameraRate	NumFrames	NumMarkers	Units	OrigDataRate	OrigDataStartFrame	OrigNumFrames
29.888059701492537	29.888059701492537	12	22	m	29.888059701492537	67	268
Frame#	Time	Hip			RHip			RKnee			RAnkle			RBigToe			RSmallToe			RHeel			LHip			LKnee			LAnkle			LBigToe			LSmallToe			LHeel			Neck			Head			Nose			RShoulder			RElbow			RWrist			LShoulder			LElbow			LWrist		
		X1	Y1	Z1	X2	Y2	Z2	X3	Y3	Z3	X4	Y4	Z4	X5	Y5	Z5	X6	Y6	Z6	X7	Y7	Z7	X8	Y8	Z8	X9	Y9	Z9	X10	Y10	Z10	X11	Y11	Z11	X12	Y12	Z12	X13	Y13	Z13	X14	Y14	Z14	X15	Y15	Z15	X16	Y16	Z16	X17	Y17	Z17	X18	Y18	Z18	X19	Y19	Z19	X20	Y20	Z20	X21	Y21	Z21	X22	Y22	Z22
67	2.241697877652934	0.8683246737522301	-0.7613596325963682	0.0	0.8291190619346405	-0.7719442048839716	0.0	0.9015728522685632	-1.06377866116205	0.0	0.6061162352430683	-1.0118380737977992	0.0	0.5767262109813979	-1.1920358485786435	0.0	1.4475585856965485	-1.0994003904015632	0.0	0.6579426843259659	-0.9729786060206148	0.0	0.9197070359700507	-0.7790858261381572	0.0	1.0013307836241228	-1.0553118077070365	0.0	0.7417344706300922	-1.0142934668470682	0.0	1.496234619140626	-0.8226723632812507	0.0	1.5162546386718743	-0.8310659179687504	0.0	0.6596249864243234	-0.9806860697136723	0.0	1.095756724903867	-0.36343877607628494	0.0	1.232182271444421	-0.19446945766060061	0.0	1.2406899111981717	-0.3077152780832539	0.0	1.0128177102048632	-0.3955996368508806	0.0	0.9113279540974784	-0.6284246883292399	0.0	0.919852714833858	-0.8464583631539759	0.0	1.0761773396838283	-0.42216632539181365	0.0	1.006388204779862	-0.6363942914218685	0.0	1.0757368363546997	-0.8386596478010724	0.0
68	2.275156054931336	0.8738838905452556	-0.7609107002441596	0.0	0.8377662769489745	-0.7700090550767923	0.0	0.9104100747498255	-1.0637261913778724	0.0	0.6127163798064008	-1.0191986806962825	0.0	0.5460621078751428	-1.1956236419326458	0.0	1.4475585914855325	-1.0994003897752924	0.0	0.5928254943581369	-0.9658265314204043	0.0	0.9254262138472695	-0.7767749508291723	0.0	0.9981781493345525	-1.056563643891185	0.0	0.7652317976609166	-1.0258489019685482	0.0	1.4962346191406264	-0.8226723632812517	0.0	1.5162546386718734	-0.8310659179687511	0.0	0.663161042864466	-0.9801194987706051	0.0	1.0796664832693017	-0.35153642889697667	0.0	1.2092945530489374	-0.17694078596086515	0.0	1.2233465172760598	-0.292775847941717	0.0	1.0037815130979497	-0.3887889992376371	0.0	0.9650449299774287	-0.6310587337725231	0.0	1.0436715064386433	-0.8349473788912831	0.0	1.0585906363680992	-0.4093724017306538	0.0	1.0395827967099533	-0.6342840476585463	0.0	1.1231743873912887	-0.8050113834761761	0.0
69	2.308614232209738	0.8823544997138857	-0.7596910405824502	0.0	0.8493109507571818	-0.7666872783347827	0.0	0.9215220897681615	-1.0631347132675846	0.0	0.6319281447221785	-1.0262404551677142	0.0	0.539680826687446	-1.196452177629445	0.0	1.4475585944863028	-1.0994003897460523	0.0	0.5597428090892888	-0.9641534404796063	0.0	0.9326077211762377	-0.7728060339734006	0.0	0.9960863742994459	-1.0575865306404095	0.0	0.7883100169432399	-1.0374859774170129	0.0	1.4962346191406262	-0.8226723632812528	0.0	1.516254638671872	-0.8310659179687521	0.0	0.664834453083249	-0.9797392798187461	0.0	1.0618607962256168	-0.3377879171857884	0.0	1.1839689946285867	-0.15886616948990862	0.0	1.2026943166264412	-0.2768779095737283	0.0	0.9948057259550527	-0.3793124530457038	0.0	1.0222609513543486	-0.6136794328697435	0.0	1.1602773864834879	-0.7845704555647575	0.0	1.0390049658767184	-0.39420221872992656	0.0	1.0737561030692608	-0.6158913958709917	0.0	1.1818316389637085	-0.748387880928559	0.0
70	2.34207240948814	0.8935247624851975	-0.7576037009784525	0.0	0.8634825373542887	-0.7629553662810629	0.0	0.9343173760513052	-1.062286118810776	0.0	0.6639387299029003	-1.0327291978967423	0.0	0.5450060385570864	-1.1959237606697959	0.0	1.447558595526418	-1.099400389971188	0.0	0.5486324926121265	-0.9652227498091968	0.0	0.9409993178518692	-0.7679327391208888	0.0	0.9963703697314196	-1.058193879345056	0.0	0.8099421256834809	-1.047434124188742	0.0	1.4962346191406246	-0.8226723632812535	0.0	1.5162546386718707	-0.8310659179687531	0.0	0.6652874385867674	-0.9795385783608744	0.0	1.04375897160305	-0.32327019851069533	0.0	1.1577818724995426	-0.14137209019018332	0.0	1.1804669132330419	-0.26116790153605957	0.0	0.9860723935236078	-0.3671579991580559	0.0	1.0761686482257058	-0.5772111609197939	0.0	1.2584947978348247	-0.7012020951790995	0.0	1.02004934254398	-0.3776944741400758	0.0	1.106175282412496	-0.5805403910558564	0.0	1.2417821499854849	-0.6686337104238251	0.0
71	2.375530586766542	0.906875552101536	-0.7543400118355705	0.0	0.8798195282451572	-0.7591426036050785	0.0	0.9479927943726997	-1.061518909030106	0.0	0.705725210570979	-1.0386872750603606	0.0	0.5537268549691032	-1.1949777695280526	0.0	1.4475585954764747	-1.099400390240628	0.0	0.5495902028506596	-0.9671356041384145	0.0	0.9501936718787275	-0.7626065804969139	0.0	0.9988358544628372	-1.0583255765040274	0.0	0.8301262560664397	-1.0552738177938055	0.0	1.496234619140621	-0.8226723632812527	0.0	1.5162546386718703	-0.8310659179687534	0.0	0.66511440577306	-0.979466135498814	0.0	1.0264327683858014	-0.30894621759669894	0.0	1.1321714300245216	-0.12508223937932736	0.0	1.158220902384578	-0.24631450587205964	0.0	0.9777392603862489	-0.3527049741279174	0.0	1.1211497525402516	-0.5257281003266258	0.0	1.3303104124685095	-0.5953080078091608	0.0	1.003587318124578	-0.361031852192226	0.0	1.134186113264468	-0.530885315550984	0.0	1.292443684698795	-0.5711921136463469	0.0
72	2.408988764044944	0.9217341932222869	-0.7496566556063723	0.0	0.8979739525209829	-0.7549606139306715	0.0	0.9617553947700253	-1.0609083454606396	0.0	0.7535043939610865	-1.0442782866515457	0.0	0.5614963221261304	-1.1941146514628935	0.0	1.4475585949898961	-1.0994003904557028	0.0	0.555271203378904	-0.9688805467411206	0.0	0.959481856402709	-0.7569548102890491	0.0	1.0016686329129658	-1.0579643875205136	0.0	0.8492150058905318	-1.0613713407143996	0.0	1.4962346191406148	-0.8226723632812489	0.0	1.5162546386718723	-0.831065917968752	0.0	0.6647296395017372	-0.9794661846027752	0.0	1.0105517572875578	-0.2951830007251941	0.0	1.1079822006943503	-0.11018451107554399	0.0	1.1372361534108775	-0.23244387784671108	0.0	0.9699189638812367	-0.33653233239495445	0.0	1.153978920800779	-0.46495924173255626	0.0	1.3720702461646244	-0.47937890290414353	0.0	0.9905448328498617	-0.3451012348918114	0.0	1.1551750218116321	-0.473238737889909	0.0	1.3259004762817652	-0.4666713340850093	0.0
73	2.4424469413233463	0.9371875174014805	-0.7432730285146606	0.0	0.9175453580055348	-0.7495770913107955	0.0	0.9751948267907061	-1.0601789938142698	0.0	0.8041037368250024	-1.0496679671026128	0.0	0.5667767046529953	-1.1935186309980343	0.0	1.447558594454121	-1.0994003905903262	0.0	0.5613691319028223	-0.9700853527904788	0.0	0.9679057951044853	-0.7505706156804669	0.0	1.0025429574137494	-1.0569879845608077	0.0	0.8675054154124632	-1.0662691849643475	0.0	1.496234619140606	-0.8226723632812404	0.0	1.516254638671879	-0.8310659179687472	0.0	0.6643612873788254	-0.9794961452572922	0.0	0.9964982687370162	-0.2817114377102384	0.0	1.0855306153213824	-0.09663483362881597	0.0	1.1184305630628475	-0.2192512427583503	0.0	0.9626392160225465	-0.3191216433031151	0.0	1.1738491741569042	-0.4004836873240029	0.0	1.3851120616106993	-0.3646286319290029	0.0	0.9814141139724993	-0.3303623041297945	0.0	1.1675891806481626	-0.4161585964352844	0.0	1.3388802229696604	-0.3665366432250723	0.0
74	2.475905118601748	0.9521274767622148	-0.7347050938276009	0.0	0.9377513573201367	-0.7418393068574455	0.0	0.9885698575375764	-1.0589288440421682	0.0	0.8552215163582697	-1.0549496349152592	0.0	0.5696048304717659	-1.1931936877439218	0.0	1.4475585940422524	-1.0994003906553647	0.0	0.5659938192174078	-0.9707421075196853	0.0	0.9743687031856484	-0.7425355488118773	0.0	0.9999523845059177	-1.0552741198004936	0.0	0.8850270292885662	-1.070368172661092	0.0	1.4962346191405966	-0.8226723632812258	0.0	1.5162546386718925	-0.8310659179687374	0.0	0.6640991002173865	-0.9795303694314973	0.0	0.9844305537371751	-0.2681426829378848	0.0	1.065083115785249	-0.08432810639969371	0.0	1.1022378440455942	-0.20638652398999457	0.0	0.955808810507221	-0.3008582151327041	0.0	1.1815639312912496	-0.33642758295046615	0.0	1.3748395942200589	-0.2594574181061846	0.0	0.9759702581320242	-0.31698996454500494	0.0	1.1716034772375934	-0.36708655846042504	0.0	1.3327987798697822	-0.27938654685920367	0.0
75	2.50936329588015	0.9654798567904677	-0.7236151777615583	0.0	0.9574793768466435	-0.7310478850289642	0.0	1.0026412557244964	-1.0569028902805246	0.0	0.9051128351819241	-1.0601115356849031	0.0	0.5706575727981967	-1.1930683221397966	0.0	1.4475585937922857	-1.0994003906739358	0.0	0.5687625120107557	-0.970995419507675	0.0	0.9775016885231667	-0.7321762767724721	0.0	0.9938669490488563	-1.0529095072072985	0.0	0.9014943454886354	-1.0738336497156658	0.0	1.4962346191405924	-0.8226723632812062	0.0	1.516254638671914	-0.8310659179687221	0.0	0.6639514817498217	-0.9795571191894779	0.0	0.9742324813615966	-0.2545316673139684	0.0	1.0471536305750204	-0.07326298171329378	0.0	1.0885349399420163	-0.1939815581436935	0.0	0.9491927924460526	-0.2823394623673896	0.0	1.1789366181175538	-0.2754043712708964	0.0	1.348426249076349	-0.17013750061832703	0.0	0.9723269079159047	-0.3050947605368185	0.0	1.1684412899260925	-0.32953114618790563	0.0	1.3119810810059245	-0.21063875950756528	0.0
76	2.5428214731585523	0.9765281310299697	-0.7103585113686209	0.0	0.9757403551961146	-0.7176810997189168	0.0	1.0180826770014395	-1.0541220948779269	0.0	0.9521350906204271	-1.0650325002371188	0.0	0.5706933818926015	-1.1930591687921681	0.0	1.4475585936763962	-1.0994003906678995	0.0	0.5700179955763996	-0.9710138407685402	0.0	0.9761558085222732	-0.7198391659087454	0.0	0.9857735528059954	-1.0501971286133267	0.0	0.91642263371722	-1.0766633340059615	0.0	1.496234619140603	-0.8226723632811872	0.0	1.5162546386719402	-0.8310659179687033	0.0	0.6638909879980776	-0.9795735658470107	0.0	0.9655414337936569	-0.24160940362115185	0.0	1.0323490311940662	-0.06364743508807101	0.0	1.076771154739269	-0.18274456271860112	0.0	0.9424967893796438	-0.26461523461570496	0.0	1.168847621867328	-0.2194542496570919	0.0	1.312705655511767	-0.10083806347790569	0.0	0.9671572620045993	-0.2948975728636853	0.0	1.1595943083227453	-0.30253857643975063	0.0	1.2817823934581738	-0.1624479482529881	0.0
77	2.576279650436954	0.9852193200323948	-0.6961074371778435	0.0	0.9919606663153525	-0.7033216507714192	0.0	1.0349687432901438	-1.0508643004247014	0.0	0.9945007271797166	-1.0695083738069717	0.0	0.5702997372649452	-1.1931004578147573	0.0	1.4475585936474786	-1.0994003906526553	0.0	0.5703100679967326	-0.9709303283148565	0.0	0.9709869372896208	-0.706898298677326	0.0	0.9783807107659998	-1.0475241008852385	0.0	0.9294472625679231	-1.0788816739395832	0.0	1.4962346191406428	-0.8226723632811822	0.0	1.516254638671961	-0.8310659179686883	0.0	0.6638827819542011	-0.9795813217112112	0.0	0.9580539380679829	-0.23064862290058158	0.0	1.020973603840765	-0.05581368616633566	0.0	1.0662672535254523	-0.17340854311050302	0.0	0.9355257362499884	-0.2489905708134896	0.0	1.1548411827107559	-0.17054118352236342	0.0	1.2730170855383607	-0.05269653627583037	0.0	0.9585224490889338	-0.28684810733665705	0.0	1.1468620263896914	-0.2824781967214612	0.0	1.2475532321191825	-0.13291293847335076	0.0
78	2.6097378277153562	0.9921907983336311	-0.6824696036001385	0.0	1.005873681719025	-0.6899167536036187	0.0	1.052712550782363	-1.0475956196805165	0.0	1.0305487713378685	-1.0733282555852324	0.0	0.5698350270556602	-1.1931514288780185	0.0	1.4475585936637396	-1.0994003906368484	0.0	0.5701256354388562	-0.9708272708781682	0.0	0.9649649074879865	-0.6951434451545836	0.0	0.9746924108791253	-1.0453269079301302	0.0	0.9406578147525643	-1.0807395719353288	0.0	1.496234619140727	-0.8226723632812143	0.0	1.5162546386719555	-0.8310659179686923	0.0	0.6638983745129895	-0.9795833973023063	0.0	0.9517968572327635	-0.22300255451902035	0.0	1.0128201951716858	-0.05001285479539346	0.0	1.056454031821553	-0.16620484028466975	0.0	0.9283616461027626	-0.23658966897147965	0.0	1.1397680473818472	-0.13011144805110622	0.0	1.2328965219689465	-0.023863276250656092	0.0	0.9487695667339535	-0.2815474756055402	0.0	1.1323462928707069	-0.2661102397044365	0.0	1.213793587420193	-0.11703658411752284	0.0
